<svg viewBox="0 0 570 539" fill="none" xmlns="http://www.w3.org/2000/svg">
<path d="M38.8503 479.848C38.8503 479.848 -6.40788 229.259 5.94296 188.205C18.2938 147.152 65.5824 108.104 133.47 81.4107C201.357 54.7173 374.121 36.2177 425.555 36.2177C476.988 36.2177 509.895 50.5992 530.452 91.6741C551.009 132.749 559.32 192.281 567.462 255.995C575.604 319.708 561.287 424.413 561.287 424.413C561.287 424.413 536.606 471.654 452.265 483.987C367.924 496.32 221.892 529.18 162.253 527.11C102.614 525.041 100.541 514.799 75.8606 502.465C51.18 490.132 38.8503 479.848 38.8503 479.848Z" fill="#D65C43"/>
<path d="M522.563 87.2182C522.563 87.2182 165.954 136.508 126.257 167.995C86.5613 199.483 104.326 315.823 104.326 356.961C104.326 398.099 104.326 513.046 120.78 521.282C137.234 529.518 279.839 524.027 359.38 503.479C438.92 482.931 552.721 478.834 562.407 424.751C572.093 370.667 570.634 207.719 552.806 155.683C534.977 103.648 522.563 87.2182 522.563 87.2182Z" fill="#964034"/>
<path d="M165.953 226.894C165.953 226.894 245.493 217.306 344.216 196.779C442.938 176.253 507.399 162.547 507.399 162.547C507.399 162.547 517.001 170.762 503.275 176.231C489.55 181.701 165.953 243.324 165.953 243.324V226.894Z" fill="#585E69"/>
<path d="M174.074 227.063L166.017 226.894L163.268 230.146L157.6 289.277C157.6 289.277 164.79 300.575 169.929 287.736C175.068 274.896 174.074 227.063 174.074 227.063ZM165.615 288.517C164.799 288.517 164.002 288.275 163.324 287.823C162.646 287.37 162.117 286.727 161.805 285.975C161.493 285.222 161.411 284.394 161.57 283.595C161.729 282.797 162.122 282.063 162.699 281.487C163.276 280.911 164.01 280.519 164.81 280.36C165.61 280.201 166.44 280.283 167.193 280.594C167.947 280.906 168.591 281.434 169.044 282.111C169.497 282.788 169.739 283.584 169.739 284.399C169.739 285.478 169.313 286.514 168.552 287.281C167.792 288.048 166.759 288.485 165.678 288.496L165.615 288.517Z" fill="#C2C2C2"/>
<path d="M173.737 96.8058C173.737 96.8058 191.566 35.1829 216.246 22.8921C240.927 10.6013 330.069 -5.87086 352 2.34413C373.931 10.5591 375.263 50.2613 375.263 50.2613L376.3 63.4391L354.707 68.064C354.707 68.064 354.707 31.1071 338.253 26.989C321.799 22.871 245.008 36.5768 232.679 47.5371C220.349 58.4975 209.415 100.945 209.415 100.945C204.913 103.787 199.66 105.214 194.336 105.042C184.714 105.021 173.737 96.8058 173.737 96.8058Z" fill="#964034"/>
<path d="M192.073 98.6854C192.073 98.6854 211.614 38.6041 228.025 28.3407C244.437 18.0772 315.433 8.82748 330.872 8.32064C346.31 7.81381 358.132 7.30688 358.132 7.30688C358.132 7.30688 351.449 -0.908044 328.313 0.10563C305.176 1.1193 230.098 11.9108 214.681 21.6674C199.263 31.424 184.332 61.2007 180.229 72.4989C176.126 83.7972 172.002 90.4704 174.583 95.0953C177.163 99.7202 192.073 98.6854 192.073 98.6854Z" fill="#D65C43"/>
<path d="M107.753 118.705C107.753 118.705 110.058 119.318 114.098 120.078C130.684 123.178 147.68 123.414 164.347 120.775C194.167 115.643 384.441 84.8741 384.441 84.8741L434.839 72.5621C434.839 72.5621 171.559 130.067 148.929 130.067" fill="#964034"/>
<path d="M12.0967 226.535C15.1844 226.535 34.7258 240.917 61.4578 246.048C88.1897 251.18 95.2957 251.18 95.2957 251.18C95.2957 251.18 64.4397 252.194 43.8832 247.083C31.3717 243.777 20.2388 236.58 12.0967 226.535Z" fill="#964034"/>
<path d="M124.905 124.872C122.155 124.872 71.4195 144.047 59.0898 173.444C46.7601 202.84 44.6875 241.909 44.6875 241.909L53.5911 247.4C53.5911 247.4 49.4671 191.943 67.9934 171.374C86.5196 150.805 132.433 124.133 132.433 124.133L124.905 124.872Z" fill="#964034"/>
<path d="M414.917 54.3583C414.917 54.3583 437.546 51.6129 455.374 48.8886C466.992 47.3098 478.785 47.5378 490.333 49.5644L495.134 54.3583C495.134 54.3583 464.278 52.9011 454.677 52.9011C445.075 52.9011 420.395 55.013 420.395 55.013L414.917 54.3583Z" fill="#964034"/>
<path d="M337.471 24.1804C337.471 24.1804 354.961 28.2984 358.049 39.0687C361.136 49.839 360.163 66.0155 360.163 66.0155L353.65 67.2193C353.65 67.2193 353.988 38.2873 347.812 32.9022C341.637 27.517 337.471 24.1804 337.471 24.1804Z" fill="#D65C43"/>
<path d="M48.0923 471.992C48.0923 471.992 19.3724 286.849 21.1066 265.034C22.8408 243.218 42.0015 255.467 42.0015 255.467C42.0015 255.467 11.8011 232.237 12.0972 226.472C12.3933 220.706 13.2604 197.223 26.3303 177.224C39.4002 157.225 85.5467 114.63 85.5467 114.63L158.679 77.2505C158.679 77.2505 91.6375 90.2804 48.9805 128.547C6.32361 166.813 -1.52256 183.391 0.211636 215.511C1.94583 247.632 33.2882 457.209 33.2882 457.209L34.1553 474.589L40.2461 484.156L52.4278 489.372L48.0923 471.992Z" fill="#D38E43"/>
<path d="M55.3666 236.418C55.3666 236.418 50.4389 189.958 68.0558 171.416C85.6727 152.875 119.849 132.665 119.849 132.665C119.849 132.665 78.0592 163.37 69.3459 184.826C60.6326 206.283 55.3666 236.418 55.3666 236.418Z" fill="#D38E43"/>
<path d="M174.921 87.4505C174.921 87.4505 191.84 28.3195 217.874 19.6399C243.908 10.9603 310.167 1.09814 310.167 1.09814C310.167 1.09814 220.2 13.2622 208.019 30.6636C195.837 48.065 174.604 95.1375 174.604 95.1375L174.921 87.4505Z" fill="#D38E43"/>
<path opacity="0.39" d="M125.602 512.877C125.602 512.877 345.866 490.28 438.159 438.118C530.452 385.956 550.48 344.227 553.948 321.63C557.417 299.034 562.661 257.304 562.661 257.304C562.661 257.304 572.432 391.384 557.966 436.07C543.501 480.756 289.378 529.434 231.811 535.516C174.244 541.598 124.672 539.253 116.424 532.601C114.018 530.655 112.099 528.176 110.818 525.361C109.537 522.546 108.929 519.472 109.043 516.382L125.602 512.877Z" fill="#662923"/>
</svg>
