<svg width="2413" height="219" viewBox="0 0 2413 219" fill="none" xmlns="http://www.w3.org/2000/svg">
<path d="M699.49 209.19C1287.61 231.63 1833.18 210.51 2090.95 190.71C2228.79 180.12 2339.41 160.86 2412.54 145.22V0H0V124.82C59.2 144.89 242.73 191.77 699.49 209.19Z" fill="#9D3B22"/>
<path d="M2038.35 160.36C1778.08 185.44 1437.72 186.76 1162.43 186.76C887.14 186.76 574.35 180.16 316.59 151.12C161.28 133.62 57.77 111.82 0.0100098 97.25V124.82C59.21 144.89 242.73 191.82 699.49 209.2C1287.61 231.64 1833.18 210.52 2090.95 190.72C2228.79 180.13 2339.41 160.87 2412.54 145.23V114.23C2345.97 124.61 2214.54 143.39 2038.35 160.36Z" fill="#6D281A"/>
</svg>
