<svg id="Layer_1" data-name="Layer 1" xmlns="http://www.w3.org/2000/svg" viewBox="0 0 333.55 144.26"><defs><style>.cls-1,.cls-2{fill:#d0d2d8;}.cls-1,.cls-3{fill-rule:evenodd;}.cls-3,.cls-4{fill:#5386c6;}</style></defs><title>dp-logo</title><path class="cls-1" d="M392.56,72.48L385.43,89.6H368.74l0,0H330.49a67.3,67.3,0,0,0,21,41.35l10.25-26.63h16.68L364.35,140.2h0L358.21,155a83.06,83.06,0,0,1-43.77-80.74H375l3.58-8.3,0.11-.22L400.86,10.9H418Z" transform="translate(-314.11 -10.9)"/><polygon class="cls-2" points="292.94 144.26 306.5 109.62 311.06 109.62 297.53 144.26 292.94 144.26"/><polygon class="cls-2" points="104.49 112.86 101.66 119.93 86.17 125.44 97.5 130.31 95.18 136.11 77.59 128.01 79.75 122.75 104.49 112.86"/><polygon class="cls-2" points="316.14 114.96 333.55 123.06 331.68 128.28 306.81 138.25 309.63 131.23 325.27 125.51 313.84 120.71 316.14 114.96"/><path class="cls-3" d="M419.23,61.76H402.55l14.12-35.92h0l6.15-14.77a83.08,83.08,0,0,1,43.77,80.75H406l-3.57,8.3-0.11.21-22.17,54.84h-17.1l25.41-61.61,7.12-17.11h16.68v0h38.27a67.34,67.34,0,0,0-21-41.35Z" transform="translate(-314.11 -10.9)"/><path class="cls-4" d="M415.78,142.42l6.54-1a4.74,4.74,0,0,0,1.55,2.84,5.4,5.4,0,0,0,3.27.83,6.79,6.79,0,0,0,3.78-1,2.58,2.58,0,0,0,1.26-1.67,1.48,1.48,0,0,0-.25-1.18,6.56,6.56,0,0,0-2.48-1.23q-5.56-2-6.75-3.11a4.76,4.76,0,0,1-1.31-4.66,8.36,8.36,0,0,1,3.11-5q3.56-2.91,9.45-2.9,4.69,0,6.75,1.71a5.92,5.92,0,0,1,2.14,4.64l-6.25,1.05a2.91,2.91,0,0,0-1.17-2,5.73,5.73,0,0,0-3.34-.89,5.62,5.62,0,0,0-3.09.68,2.5,2.5,0,0,0-1.21,1.57,1.44,1.44,0,0,0,.62,1.51,18.48,18.48,0,0,0,3.44,1.28c3,0.92,5,1.84,5.88,2.74a4.78,4.78,0,0,1,1.4,4.58,9.79,9.79,0,0,1-4.07,6,14.11,14.11,0,0,1-8.67,2.54q-5.26,0-7.75-1.93A7.46,7.46,0,0,1,415.78,142.42Z" transform="translate(-314.11 -10.9)"/><path class="cls-4" d="M461.15,134.45a4.47,4.47,0,0,0-.63-3.73,3.84,3.84,0,0,0-3.24-1.41,6.94,6.94,0,0,0-4,1.32,11.17,11.17,0,0,0-3.31,3.81,16.19,16.19,0,0,0-1.81,4.61,5.14,5.14,0,0,0,.61,4.13,3.81,3.81,0,0,0,3.27,1.53,6.86,6.86,0,0,0,5-2.31A15.1,15.1,0,0,0,461.15,134.45Zm-19.6,4.69a18.44,18.44,0,0,1,5.9-10.75,15.83,15.83,0,0,1,10.78-4q5.37,0,7.81,3t1.47,8a18.46,18.46,0,0,1-5.75,10.19,15.49,15.49,0,0,1-10.94,4.3,11.44,11.44,0,0,1-5.81-1.37,6.79,6.79,0,0,1-3.2-3.89A10.73,10.73,0,0,1,441.55,139.14Z" transform="translate(-314.11 -10.9)"/><polygon class="cls-4" points="150.91 138.31 164.44 104.81 170.98 104.81 157.47 138.31 150.91 138.31"/><path class="cls-4" d="M485.39,124.94H492l-5.78,14.37a25.86,25.86,0,0,0-1.18,3.23,2,2,0,0,0,.42,1.81,2.26,2.26,0,0,0,1.84.75,5.08,5.08,0,0,0,1.78-.33,9.46,9.46,0,0,0,1.94-1,12.14,12.14,0,0,0,1.89-1.54,12.67,12.67,0,0,0,1.77-2.29,24.66,24.66,0,0,0,1.61-3.43l4.67-11.57h6.56l-9.79,24.27h-6.13l1.33-3.29q-4.77,3.86-9.5,3.86a5.28,5.28,0,0,1-4.37-1.71,5.39,5.39,0,0,1-.82-4.59,35,35,0,0,1,1.76-5Z" transform="translate(-314.11 -10.9)"/><path class="cls-4" d="M509.12,129.82l1.95-4.88h3.2l1.56-3.88,8.4-4.52-3.4,8.4h4l-2,4.88h-4L514.74,140c-0.74,1.85-1.13,2.89-1.18,3.15a1.28,1.28,0,0,0,.25,1.18,2.33,2.33,0,0,0,1.65.42c0.29,0,1-.05,2.2-0.16l-2,4.87a18.65,18.65,0,0,1-3.54.34q-3.47,0-4.79-1.33a3.93,3.93,0,0,1-.85-3.72,41.39,41.39,0,0,1,1.85-5.16l3.93-9.75h-3.17Z" transform="translate(-314.11 -10.9)"/><path class="cls-4" d="M528.53,124.94h6.56l-9.79,24.27h-6.56Zm3.71-9.23h6.56l-2.39,5.94h-6.56Z" transform="translate(-314.11 -10.9)"/><path class="cls-4" d="M553.19,134.45a4.47,4.47,0,0,0-.63-3.73,3.84,3.84,0,0,0-3.23-1.41,7,7,0,0,0-4,1.32,11.12,11.12,0,0,0-3.3,3.81,15.77,15.77,0,0,0-1.81,4.61,5.16,5.16,0,0,0,.61,4.13,3.81,3.81,0,0,0,3.27,1.53,6.87,6.87,0,0,0,5-2.31A15.07,15.07,0,0,0,553.19,134.45Zm-19.6,4.69a18.47,18.47,0,0,1,5.89-10.75,15.84,15.84,0,0,1,10.78-4q5.36,0,7.81,3t1.47,8a18.43,18.43,0,0,1-5.75,10.19,15.46,15.46,0,0,1-10.93,4.3,11.48,11.48,0,0,1-5.82-1.37,6.8,6.8,0,0,1-3.2-3.89A10.67,10.67,0,0,1,533.59,139.14Z" transform="translate(-314.11 -10.9)"/><path class="cls-4" d="M567.26,124.94h6.2l-1.25,3.15a22.49,22.49,0,0,1,4.91-2.87,12.16,12.16,0,0,1,4.43-.85,4.8,4.8,0,0,1,5.23,6.26,32.83,32.83,0,0,1-1.69,4.84l-5.52,13.74H573l5.56-13.78a34.69,34.69,0,0,0,1.35-3.68,2.25,2.25,0,0,0-.35-2,2.37,2.37,0,0,0-1.93-.72,7,7,0,0,0-3.43,1.21,11.34,11.34,0,0,0-3.39,3.2,33.11,33.11,0,0,0-2.77,5.79l-4,10h-6.56Z" transform="translate(-314.11 -10.9)"/><path class="cls-4" d="M584.81,142.42l6.55-1a4.78,4.78,0,0,0,1.55,2.84,5.35,5.35,0,0,0,3.26.83,6.79,6.79,0,0,0,3.79-1,2.57,2.57,0,0,0,1.26-1.67,1.45,1.45,0,0,0-.25-1.18,6.54,6.54,0,0,0-2.48-1.23q-5.56-2-6.75-3.11a4.79,4.79,0,0,1-1.32-4.66,8.43,8.43,0,0,1,3.11-5q3.56-2.91,9.46-2.9,4.68,0,6.75,1.71a5.9,5.9,0,0,1,2.14,4.64l-6.26,1.05a2.89,2.89,0,0,0-1.17-2,5.75,5.75,0,0,0-3.34-.89,5.63,5.63,0,0,0-3.1.68,2.51,2.51,0,0,0-1.21,1.57,1.42,1.42,0,0,0,.62,1.51,18.1,18.1,0,0,0,3.43,1.28c3,0.92,5,1.84,5.89,2.74a4.8,4.8,0,0,1,1.39,4.58,9.79,9.79,0,0,1-4.07,6,14.1,14.1,0,0,1-8.67,2.54q-5.24,0-7.74-1.93A7.46,7.46,0,0,1,584.81,142.42Z" transform="translate(-314.11 -10.9)"/></svg>