<svg id="Layer_1" data-name="Layer 1" xmlns="http://www.w3.org/2000/svg" xmlns:xlink="http://www.w3.org/1999/xlink" viewBox="0 0 634.28 442.5"><defs><style>.cls-1{fill:url(#linear-gradient);}.cls-2{fill:url(#linear-gradient-2);}.cls-3{fill:url(#linear-gradient-3);}.cls-4{fill:url(#linear-gradient-4);}.cls-5{fill:url(#linear-gradient-5);}.cls-6{fill:url(#linear-gradient-6);}.cls-7{opacity:0.63;}.cls-8{fill:url(#linear-gradient-7);}.cls-9{fill:url(#linear-gradient-8);}.cls-10{fill:url(#linear-gradient-9);}.cls-11{fill:url(#linear-gradient-10);}.cls-12,.cls-13,.cls-14,.cls-15{fill:none;}.cls-12{stroke:#65ae45;}.cls-12,.cls-15{stroke-miterlimit:10;}.cls-13{stroke:#4b64ae;}.cls-14{stroke:#010101;}.cls-15{stroke:#ef3924;}.cls-16,.cls-17,.cls-19{fill:#010101;}.cls-17{opacity:0.2;}.cls-18{fill:#cfbb2c;}.cls-19{opacity:0.57;}.cls-20{fill:#317b59;}.cls-21{fill:#c2c2c2;}.cls-22{fill:url(#linear-gradient-11);}.cls-23{fill:#5365ae;}.cls-24{fill:#151827;}.cls-25{fill:#841532;}.cls-26,.cls-27{fill:#0b0b0a;}.cls-26{opacity:0.18;}.cls-28{opacity:0.51;fill:url(#linear-gradient-12);}.cls-29{fill:#e61e25;}.cls-30{fill:#fff;opacity:0.59;}</style><linearGradient id="linear-gradient" x1="2244.23" y1="2251.61" x2="2244.23" y2="1619.46" gradientTransform="translate(2960.83 -1813.54) rotate(90)" gradientUnits="userSpaceOnUse"><stop offset="0" stop-color="#e7e7e7"/><stop offset="1" stop-color="#a8aaad"/></linearGradient><linearGradient id="linear-gradient-2" x1="2243.75" y1="2226.05" x2="2243.75" y2="1646.49" gradientTransform="translate(2960.8 -1813.55) rotate(90)" gradientUnits="userSpaceOnUse"><stop offset="0" stop-color="#fff"/><stop offset="1" stop-color="#d2d3d4"/></linearGradient><linearGradient id="linear-gradient-3" x1="2032.78" y1="1638.85" x2="2057.88" y2="1638.85" gradientTransform="matrix(0.01, 1, -1, 0.01, 2949.37, -1823.37)" gradientUnits="userSpaceOnUse"><stop offset="0" stop-color="#575757"/><stop offset="1" stop-color="#a8aaad"/></linearGradient><linearGradient id="linear-gradient-4" x1="3785.33" y1="1637.67" x2="3810.44" y2="1637.67" gradientTransform="matrix(-0.01, -1, -1, 0.01, 2981.63, 4415.96)" xlink:href="#linear-gradient-3"/><linearGradient id="linear-gradient-5" x1="2033.08" y1="-1202.72" x2="2058.18" y2="-1202.72" gradientTransform="matrix(0.01, 1, 1, -0.01, 1922.09, -1817.59)" xlink:href="#linear-gradient-3"/><linearGradient id="linear-gradient-6" x1="3785.03" y1="-1205.38" x2="3810.14" y2="-1205.38" gradientTransform="matrix(-0.01, -1, 1, -0.01, 1954.34, 4421.75)" xlink:href="#linear-gradient-3"/><linearGradient id="linear-gradient-7" x1="2771.93" y1="-1843.33" x2="2777.18" y2="-1843.33" gradientTransform="matrix(0, -1, 1.01, 0, 2855.49, 3423.05)" gradientUnits="userSpaceOnUse"><stop offset="0" stop-color="#fff"/><stop offset="1" stop-color="#fff"/></linearGradient><linearGradient id="linear-gradient-8" x1="3059.54" y1="-1878.96" x2="3064.89" y2="-1878.96" gradientTransform="matrix(0.01, -1.69, 0.99, 0.01, 2844.08, 5427.52)" xlink:href="#linear-gradient-7"/><linearGradient id="linear-gradient-9" x1="4315.56" y1="850.78" x2="4321.57" y2="850.78" gradientTransform="matrix(-1, 0, 0, -0.84, 5633.75, 1164.3)" xlink:href="#linear-gradient-7"/><linearGradient id="linear-gradient-10" x1="4913.08" y1="814.76" x2="4919.13" y2="814.76" gradientTransform="matrix(-1, 0.01, -0.01, -0.92, 5638.69, 1121.61)" xlink:href="#linear-gradient-7"/><linearGradient id="linear-gradient-11" x1="1083.65" y1="642.56" x2="1294.76" y2="642.56" gradientTransform="translate(-7.28 17.03) rotate(-0.95)" xlink:href="#linear-gradient"/><linearGradient id="linear-gradient-12" x1="886.26" y1="547.02" x2="910.16" y2="547.02" gradientTransform="translate(-7.28 17.03) rotate(-0.95)" xlink:href="#linear-gradient"/></defs><title>whiteboard</title><rect class="cls-1" x="709.2" y="217.16" width="632.11" height="426.73" transform="translate(-710.3 -210.33) rotate(-0.29)"/><rect class="cls-2" x="734.75" y="244.2" width="579.53" height="371.7" transform="translate(-710.29 -210.34) rotate(-0.29)"/><path class="cls-3" d="M1336.6,217.51s-15.1,6.11-20.22,12.17-11.13,13.09-11.13,13.09,18.7-14.09,21.42-16.28S1336.6,217.51,1336.6,217.51Z" transform="translate(-708.12 -215.56)"/><path class="cls-4" d="M1340.67,639s-15.17-6-20.35-12-11.27-13-11.27-13,18.84,13.9,21.58,16.06S1340.67,639,1340.67,639Z" transform="translate(-708.12 -215.56)"/><path class="cls-5" d="M713.95,221.55s15.17,6,20.34,12,11.27,13,11.27,13-18.84-13.9-21.58-16.06S713.95,221.55,713.95,221.55Z" transform="translate(-708.12 -215.56)"/><path class="cls-6" d="M714.17,643.05s15.11-6.11,20.22-12.17,11.13-13.09,11.13-13.09-18.7,14.1-21.41,16.28S714.17,643.05,714.17,643.05Z" transform="translate(-708.12 -215.56)"/><g class="cls-7"><path class="cls-8" d="M1291.51,640.89s-575.87,5.86-573.41,2.65,11.42-3.84,11.42-3.84Z" transform="translate(-708.12 -215.56)"/><path class="cls-9" d="M1306.49,239s-562.71,9.47-560.28,4,11.19-6.49,11.19-6.49Z" transform="translate(-708.12 -215.56)"/><path class="cls-10" d="M1316.39,240.81s6.39,384.13,2.36,382.49-4.81-7.61-4.81-7.61Z" transform="translate(-708.12 -215.56)"/><path class="cls-11" d="M711,223s11.71,416.37,7.66,414.66-4.91-8.18-4.91-8.18Z" transform="translate(-708.12 -215.56)"/></g><polygon class="cls-12" points="349.04 193.99 282.41 194.33 278.3 105.47 348.6 107.89 349.04 193.99"/><polygon class="cls-12" points="422.73 146.11 356.1 146.45 355.91 107.85 424.38 104.34 422.73 146.11"/><polygon class="cls-12" points="422.38 193.92 355.18 198.51 355.53 150.91 422.16 150.57 422.38 193.92"/><polygon class="cls-12" points="349.47 219.23 282.84 219.57 281.95 201.66 349.26 201.32 349.47 219.23"/><rect class="cls-12" x="990.42" y="439.12" width="66.63" height="15.14" transform="translate(-710.39 -210.33) rotate(-0.29)"/><polygon class="cls-13" points="444.84 313.46 262.54 314.39 255.2 78.67 443.66 81.28 444.84 313.46"/><path class="cls-14" d="M1011.07,342.68s-10.43,11.73-3.27,19,17.44,4.66,20-.5,2.1-15.25-1.87-17.81-13.07-1.32-13.07-1.32" transform="translate(-708.12 -215.56)"/><path class="cls-14" d="M1042.49,409s0.11-17.79-5.5-29.62S1026.82,364,1026.82,364" transform="translate(-708.12 -215.56)"/><path class="cls-14" d="M1013.57,366.59a62.19,62.19,0,0,1,.68,18.21c-1.14,9.74-8,24.82-8,24.82" transform="translate(-708.12 -215.56)"/><path class="cls-14" d="M1016.77,372.19s-11.56,4.21-12.28,8.08,5.23,5.76,5.23,5.76-0.44,1.64-.73,3.57-2.5,4.47-2.5,4.47-2.68-1.92-5.82-4.57-5.08-6.06-4.35-9.48,16.42-11.66,16.42-11.66" transform="translate(-708.12 -215.56)"/><path class="cls-14" d="M1010.91,387.52a6.58,6.58,0,0,1,.77,6.23c-1.31,3.72-8.43,5.09-8.43,5.09" transform="translate(-708.12 -215.56)"/><path class="cls-14" d="M1030.24,365.3s12.8,5.43,15.94,10.9-0.39,11-.39,11" transform="translate(-708.12 -215.56)"/><path class="cls-14" d="M1033.7,373s5.36,2.65,8,5.6-0.87,4-.87,4l-1.2-1.63,7.91,8" transform="translate(-708.12 -215.56)"/><path class="cls-14" d="M1047,393.87s-4.62-3.25-4.93-5.32a10.94,10.94,0,0,1-.16-3" transform="translate(-708.12 -215.56)"/><path class="cls-14" d="M1012.7,360.49s6.09,2,10.39-.94a11.08,11.08,0,0,0,4.41-8.19" transform="translate(-708.12 -215.56)"/><ellipse class="cls-14" cx="1015.41" cy="352.46" rx="0.67" ry="1.04" transform="translate(-710.02 -210.03) rotate(-0.31)"/><ellipse class="cls-14" cx="1020.59" cy="350.35" rx="0.97" ry="1.48" transform="translate(-709.59 -211.24) rotate(-0.24)"/><path class="cls-14" d="M1018.29,341.45s0.69-2.08-1.21-4.94-10-2.42-10-2.42,2-.51,4.07,2.25,1.31,4.05,1.31,4.05-0.7-.59-3.57-1a5.74,5.74,0,0,0-4.54,1.21,2.61,2.61,0,0,1,3.17,1.07c1.1,1.87.61,3,.61,3s-0.3.4-2.37,0.31a4.71,4.71,0,0,0-3.26,1s2.18,0.58,2.58,1.77a14.13,14.13,0,0,1,.21,3.86" transform="translate(-708.12 -215.56)"/><line class="cls-15" x1="264.76" y1="90.5" x2="433.83" y2="93.2"/><line class="cls-15" x1="265.15" y1="88.12" x2="274.13" y2="297.51"/><line class="cls-15" x1="270.56" y1="297.52" x2="336.68" y2="298.37"/><line class="cls-15" x1="384.98" y1="298.52" x2="438.04" y2="299.05"/><line class="cls-15" x1="438.04" y1="299.05" x2="433.83" y2="94.39"/><line class="cls-12" x1="340.29" y1="305.88" x2="338.63" y2="291.24"/><line class="cls-12" x1="338.63" y1="291.24" x2="382.17" y2="290.62"/><line class="cls-12" x1="382.17" y1="290.62" x2="383.43" y2="305.26"/><line class="cls-12" x1="341.08" y1="307.06" x2="384.63" y2="307.24"/><ellipse class="cls-12" cx="1054.5" cy="513.68" rx="2.97" ry="2.18" transform="translate(-710.72 -210.18) rotate(-0.29)"/><ellipse class="cls-12" cx="1085.19" cy="514.72" rx="2.37" ry="2.18" transform="translate(-710.54 -210.43) rotate(-0.27)"/><line class="cls-12" x1="348.56" y1="297.13" x2="374.27" y2="293.83"/><line class="cls-12" x1="356.92" y1="307.38" x2="360.66" y2="341.21"/><line class="cls-12" x1="360.66" y1="341.21" x2="202.68" y2="337.85"/><line class="cls-12" x1="202.68" y1="337.85" x2="197.07" y2="287.41"/><line class="cls-12" x1="197.07" y1="287.41" x2="177.47" y2="286.32"/><line class="cls-12" x1="129.04" y1="279.14" x2="169.42" y2="279.23"/><line class="cls-12" x1="128.77" y1="284.78" x2="138.87" y2="284.73"/><line class="cls-12" x1="145.7" y1="285.59" x2="153.42" y2="285.85"/><line class="cls-12" x1="160.25" y1="285.81" x2="167.37" y2="285.78"/><line class="cls-12" x1="128.21" y1="291.32" x2="157.6" y2="291.76"/><line class="cls-12" x1="160.28" y1="292.94" x2="168.9" y2="293.19"/><line class="cls-12" x1="130.32" y1="298.43" x2="144.57" y2="298.36"/><line class="cls-12" x1="150.52" y1="299.22" x2="164.77" y2="299.15"/><path class="cls-12" d="M826.16,491.49s-20,30.39,7.92,39.15,58.77-2.67,62.24-22.88-28.7-39-49.43-27.66-33.65,41.15-33.65,41.15" transform="translate(-708.12 -215.56)"/><path class="cls-12" d="M1210.39,498.45s-27.57,45.59,10.94,58.76,81-4,85.71-34.3-39.56-58.62-68.1-41.54-46.31,61.73-46.31,61.73" transform="translate(-708.12 -215.56)"/><path class="cls-15" d="M1193.43,277.07s-27.71,19.9,10.76,25.51,81-2,85.8-15.16-39.39-25.37-68-17.86a105.22,105.22,0,0,0-46.49,27" transform="translate(-708.12 -215.56)"/><line class="cls-12" x1="191.68" y1="121.36" x2="280.89" y2="147.43"/><line class="cls-12" x1="140.53" y1="105.78" x2="151.61" y2="105.72"/><line class="cls-12" x1="156.37" y1="106.49" x2="164.68" y2="106.45"/><line class="cls-12" x1="170.62" y1="105.63" x2="181.7" y2="105.57"/><line class="cls-12" x1="144.12" y1="111.3" x2="159.16" y2="111.23"/><line class="cls-12" x1="167.08" y1="111.58" x2="182.92" y2="111.5"/><line class="cls-12" x1="138.61" y1="117.27" x2="175.42" y2="117.08"/><line class="cls-12" x1="180.57" y1="117.06" x2="184.53" y2="117.04"/><line class="cls-12" x1="148.93" y1="122.76" x2="183.77" y2="122.58"/><line class="cls-12" x1="139.03" y1="124" x2="144.18" y2="123.97"/><line class="cls-12" x1="136.6" y1="111.34" x2="139.76" y2="111.33"/><line class="cls-12" x1="136.69" y1="130.74" x2="155.3" y2="130.64"/><line class="cls-12" x1="159.66" y1="130.62" x2="176.68" y2="130.54"/><line class="cls-12" x1="182.22" y1="130.51" x2="186.18" y2="130.49"/><line class="cls-13" x1="361.32" y1="159.69" x2="412.77" y2="157.44"/><line class="cls-13" x1="412.77" y1="157.44" x2="412.14" y2="189.12"/><line class="cls-13" x1="412.14" y1="189.12" x2="363.84" y2="188.97"/><line class="cls-13" x1="363.84" y1="188.97" x2="362.12" y2="161.26"/><line class="cls-15" x1="362.67" y1="114.94" x2="410.98" y2="115.49"/><line class="cls-15" x1="410.98" y1="115.49" x2="411.08" y2="136.08"/><line class="cls-15" x1="411.08" y1="136.08" x2="364.37" y2="137.5"/><line class="cls-15" x1="364.37" y1="137.5" x2="362.67" y2="114.94"/><line class="cls-15" x1="411.41" y1="123.4" x2="489.33" y2="108.76"/><line class="cls-15" x1="496.84" y1="105.55" x2="504.36" y2="105.51"/><line class="cls-15" x1="508.71" y1="105.09" x2="515.04" y2="105.06"/><line class="cls-15" x1="519" y1="104.64" x2="525.33" y2="104.61"/><line class="cls-15" x1="530.88" y1="104.98" x2="536.42" y2="104.95"/><line class="cls-15" x1="497.55" y1="110.3" x2="507.85" y2="110.25"/><line class="cls-15" x1="512.6" y1="111.41" x2="521.71" y2="111.36"/><line class="cls-15" x1="526.45" y1="110.55" x2="535.95" y2="110.5"/><line class="cls-15" x1="495.61" y1="117.04" x2="519.36" y2="116.92"/><line class="cls-15" x1="524.6" y1="116.49" x2="531.73" y2="116.46"/><line class="cls-15" x1="508.62" y1="68.38" x2="518.91" y2="68.32"/><line class="cls-15" x1="523.67" y1="69.49" x2="532.77" y2="69.44"/><line class="cls-15" x1="537.52" y1="68.62" x2="547.02" y2="68.58"/><line class="cls-15" x1="506.67" y1="75.11" x2="530.43" y2="74.99"/><line class="cls-15" x1="535.67" y1="74.57" x2="542.8" y2="74.54"/><line class="cls-15" x1="498.89" y1="120.98" x2="514.33" y2="120.9"/><line class="cls-15" x1="521.46" y1="120.87" x2="535.71" y2="120.79"/><line class="cls-15" x1="535.68" y1="115.25" x2="538.05" y2="115.24"/><line class="cls-13" x1="412.5" y1="181.59" x2="481.13" y2="209.75"/><line class="cls-13" x1="485.46" y1="204.98" x2="493.38" y2="204.94"/><line class="cls-13" x1="497.73" y1="204.12" x2="502.88" y2="204.1"/><line class="cls-13" x1="506.84" y1="204.08" x2="512.77" y2="204.05"/><line class="cls-13" x1="517.93" y1="205.61" x2="525.05" y2="205.57"/><line class="cls-13" x1="488.66" y1="210.9" x2="496.97" y2="210.86"/><line class="cls-13" x1="501.73" y1="211.62" x2="508.06" y2="211.59"/><line class="cls-13" x1="512.81" y1="210.78" x2="523.9" y2="210.72"/><line class="cls-13" x1="487.89" y1="215.65" x2="495.42" y2="215.62"/><line class="cls-13" x1="503.73" y1="215.97" x2="510.07" y2="215.94"/><line class="cls-13" x1="516.41" y1="217.09" x2="519.97" y2="217.08"/><line class="cls-13" x1="456.97" y1="363.09" x2="465.28" y2="363.04"/><line class="cls-13" x1="470.04" y1="363.81" x2="476.37" y2="363.78"/><line class="cls-13" x1="481.12" y1="362.96" x2="492.2" y2="362.91"/><line class="cls-13" x1="456.2" y1="367.84" x2="463.73" y2="367.8"/><line class="cls-13" x1="472.04" y1="368.16" x2="478.37" y2="368.12"/><line class="cls-13" x1="484.72" y1="369.28" x2="488.28" y2="369.26"/><line class="cls-13" x1="458.68" y1="310.62" x2="467" y2="310.58"/><line class="cls-13" x1="471.75" y1="311.34" x2="478.08" y2="311.31"/><line class="cls-13" x1="482.83" y1="310.5" x2="493.92" y2="310.44"/><line class="cls-13" x1="457.92" y1="315.37" x2="465.44" y2="315.34"/><line class="cls-13" x1="473.75" y1="315.69" x2="480.09" y2="315.66"/><line class="cls-13" x1="486.43" y1="316.81" x2="489.99" y2="316.79"/><line class="cls-13" x1="525.11" y1="217.05" x2="526.3" y2="217.04"/><line class="cls-13" x1="488.72" y1="221.19" x2="502.97" y2="221.12"/><line class="cls-13" x1="507.31" y1="219.91" x2="512.46" y2="219.89"/><line class="cls-13" x1="518.41" y1="221.04" x2="526.72" y2="221"/><path class="cls-15" d="M1206.66,344.66l10.74,11.23s3.52-8.33,25.46-13.79,26.69-5.48,26.69-5.48" transform="translate(-708.12 -215.56)"/><line class="cls-12" x1="348.94" y1="216.76" x2="459.01" y2="297.75"/><line class="cls-12" x1="459.01" y1="297.75" x2="523.54" y2="298.21"/><path class="cls-12" d="M1236.36,502.27s4.78,4.73,9.52,3.51l7.91-2,4,0.37,3.56,0,7.54,2.34,4.35-2.4,2.78,1.57,4-.41" transform="translate(-708.12 -215.56)"/><path class="cls-12" d="M1237,511.37a11.76,11.76,0,0,1,5.54-.82c2.77,0.38,5.15,1,5.15,1" transform="translate(-708.12 -215.56)"/><path class="cls-12" d="M1254.42,512.27a5.55,5.55,0,0,0,5.35.77,14.31,14.31,0,0,1,4.75-1.21" transform="translate(-708.12 -215.56)"/><polyline class="cls-12" points="561.94 296.63 566.1 297.6 570.06 296.99"/><line class="cls-12" x1="528.33" y1="303.54" x2="535.65" y2="303.5"/><line class="cls-12" x1="540.4" y1="303.48" x2="544.16" y2="303.46"/><line class="cls-12" x1="551.09" y1="304.01" x2="554.66" y2="304.19"/><line class="cls-12" x1="557.83" y1="304.77" x2="560.4" y2="304.76"/><line class="cls-12" x1="563.96" y1="303.95" x2="566.13" y2="303.74"/><line class="cls-12" x1="529.14" y1="308.68" x2="534.88" y2="308.65"/><line class="cls-12" x1="541.02" y1="308.62" x2="546.76" y2="308.59"/><line class="cls-12" x1="550.32" y1="308.77" x2="550.72" y2="308.77"/><line class="cls-14" x1="216.93" y1="221.39" x2="304.04" y2="184.72"/><line class="cls-14" x1="167.03" y1="218.67" x2="174.46" y2="218.63"/><line class="cls-14" x1="178.02" y1="218.32" x2="182.77" y2="218.29"/><line class="cls-14" x1="187.52" y1="218.27" x2="189.6" y2="218.26"/><line class="cls-14" x1="194.65" y1="218.24" x2="196.72" y2="218.22"/><line class="cls-14" x1="201.47" y1="217.6" x2="202.66" y2="217.6"/><line class="cls-14" x1="168.84" y1="223.41" x2="176.26" y2="223.38"/><line class="cls-14" x1="181.91" y1="223.64" x2="185.77" y2="223.62"/><line class="cls-14" x1="191.4" y1="223.6" x2="194.38" y2="223.58"/><line class="cls-14" x1="198.23" y1="223.56" x2="202.39" y2="223.54"/><line class="cls-14" x1="167.98" y1="229.65" x2="176.89" y2="229.61"/><line class="cls-14" x1="181.05" y1="230.77" x2="186.1" y2="230.75"/><line class="cls-14" x1="191.44" y1="230.43" x2="195.6" y2="230.4"/><line class="cls-14" x1="198.57" y1="230.09" x2="201.23" y2="230.08"/><line class="cls-14" x1="204.8" y1="229.76" x2="205.69" y2="229.76"/><line class="cls-15" x1="168.91" y1="237.96" x2="175.45" y2="237.93"/><line class="cls-15" x1="178.71" y1="237.91" x2="184.95" y2="237.88"/><line class="cls-15" x1="187.02" y1="237.87" x2="190.29" y2="237.85"/><line class="cls-15" x1="198.9" y1="238.11" x2="204.55" y2="238.08"/><line class="cls-15" x1="113.53" y1="90.38" x2="120.06" y2="90.34"/><line class="cls-15" x1="123.33" y1="90.33" x2="129.56" y2="90.3"/><line class="cls-15" x1="131.64" y1="90.28" x2="134.91" y2="90.27"/><line class="cls-15" x1="137.76" y1="86.89" x2="141.03" y2="86.87"/><line class="cls-15" x1="143.52" y1="90.52" x2="149.16" y2="90.49"/><line class="cls-15" x1="113.31" y1="86.82" x2="119.85" y2="86.78"/><line class="cls-15" x1="123.11" y1="86.76" x2="129.35" y2="86.73"/><line class="cls-15" x1="143.3" y1="86.96" x2="148.94" y2="86.93"/><line class="cls-15" x1="168.34" y1="241.82" x2="180.21" y2="241.77"/><line class="cls-15" x1="182" y1="242.05" x2="187.64" y2="242.02"/><line class="cls-15" x1="192.69" y1="242.59" x2="198.92" y2="242.56"/><line class="cls-13" x1="92.84" y1="70.79" x2="221.11" y2="70.13"/><line class="cls-13" x1="93.25" y1="73.16" x2="98.5" y2="248.52"/><line class="cls-15" x1="215.29" y1="92.33" x2="109.6" y2="95.64"/><line class="cls-15" x1="108.38" y1="90.5" x2="112.05" y2="267.05"/><line class="cls-13" x1="92.3" y1="61.68" x2="99.43" y2="61.94"/><line class="cls-13" x1="102.39" y1="61.63" x2="109.52" y2="62.19"/><line class="cls-13" x1="115.76" y1="62.16" x2="119.62" y2="62.14"/><line class="cls-13" x1="92.62" y1="66.13" x2="97.97" y2="66.11"/><line class="cls-13" x1="102.71" y1="64.9" x2="108.94" y2="64.87"/><line class="cls-13" x1="115.48" y1="65.43" x2="118.45" y2="65.41"/><line class="cls-13" x1="91.99" y1="57.82" x2="97.92" y2="57.8"/><line class="cls-13" x1="103.56" y1="57.77" x2="105.94" y2="57.46"/><line class="cls-13" x1="115.44" y1="57.51" x2="119.3" y2="57.49"/><line class="cls-15" x1="482.05" y1="83.06" x2="435.05" y2="101.51"/><line class="cls-15" x1="478.39" y1="80.31" x2="372.57" y2="115.68"/><line class="cls-15" x1="554.66" y1="72.99" x2="556.39" y2="60.91"/><line class="cls-15" x1="556.39" y1="60.91" x2="561.33" y2="60.49"/><line class="cls-15" x1="560.74" y1="60.49" x2="555.26" y2="72.99"/><ellipse class="cls-15" cx="1262.61" cy="293" rx="2.38" ry="1.88" transform="translate(-709.66 -208.83) rotate(-0.31)"/><line class="cls-13" x1="400.91" y1="314.87" x2="451.6" y2="358.56"/><path class="cls-16" d="M759.91,516.65s7.31-55.28,14.71-66.19c6.88-10.13,30.26-5.3,32.69,5.77s-0.62,34.05-5.29,48.33-4.23,23.58-16.11,23.64-25.37-6.6-25.37-6.6Z" transform="translate(-708.12 -215.56)"/><path class="cls-17" d="M756.08,514.3s8.84-58.45,17.76-70c8.29-10.71,36.44-5.63,39.36,6.08s-0.77,36-6.41,51.09-5.12,24.93-19.42,25-30.54-7-30.54-7Z" transform="translate(-708.12 -215.56)"/><path class="cls-18" d="M751.38,521.26s7.31-55.29,14.71-66.19c6.88-10.13,30.26-5.3,32.69,5.77s-0.62,34-5.29,48.32-4.24,23.58-16.11,23.64S752,526.2,752,526.2Z" transform="translate(-708.12 -215.56)"/><polygon class="cls-19" points="604.38 389.35 40.64 392.22 38.79 30.05 25.69 30.12 27.59 404.07 40.7 404 40.68 401.12 604.42 398.26 604.38 389.35"/><polygon class="cls-20" points="312.06 299.77 321.84 296.89 322.3 298.94 312.88 302.06 312.06 299.77"/><path class="cls-21" d="M1087.79,624.35s-3.13,20.16,11.56,28.24,171.32,3.41,184.34-5.83,14.7-33.52,14.7-33.52l-205.82,6.87Z" transform="translate(-708.12 -215.56)"/><path class="cls-22" d="M1090.8,628.12s5.4,11.87,33,14.53,97.23-1.09,121.65-2.53,52.2-19.59,52.2-19.59S1296,646,1275.79,651.06s-168.83,10.59-177.26,4-11.77-20.08-11.77-20.08Z" transform="translate(-708.12 -215.56)"/><path class="cls-23" d="M1104.83,630.11s54.31-5.6,55.83-6a71,71,0,0,1,9.15-2.51c5.38-1.08,14.23-1.47,17.33.83s0,7.84-6.44,8.51-18.06-.23-19.61-0.07-1.47.93-6.13,1.42-48.52,3.43-48.52,3.43l-1-2.51Z" transform="translate(-708.12 -215.56)"/><path class="cls-24" d="M1147.31,633.42s54.59-.9,56.15-1.19a70.34,70.34,0,0,1,9.33-1.72c5.45-.61,14.3-0.24,17.2,2.32s-0.65,7.81-7.15,7.92-18-1.78-19.53-1.76-1.55.81-6.23,0.88-48.64-.76-48.64-0.76l-0.82-2.59Z" transform="translate(-708.12 -215.56)"/><path class="cls-25" d="M1187.46,624.18s54.59-.9,56.14-1.19a70.9,70.9,0,0,1,9.33-1.71c5.45-.61,14.3-0.24,17.2,2.32s-0.65,7.81-7.15,7.92-18-1.78-19.53-1.76-1.54.8-6.23,0.88-48.63-.76-48.63-0.76l-0.82-2.59Z" transform="translate(-708.12 -215.56)"/><path class="cls-24" d="M1267.47,627.66s0.33,4.16-6.55,4.79-10.66.18-16.24,0.66a34.89,34.89,0,0,0-8.17,1.43l-0.71-3.5s8.83-1.06,12.46-1.77,11.26-2.79,11.26-2.79l6.08-1.92Z" transform="translate(-708.12 -215.56)"/><path class="cls-24" d="M1184.94,626.21s0.33,4.16-6.55,4.79-10.66.18-16.24,0.66a34.91,34.91,0,0,0-8.17,1.43l-0.71-3.5s8.82-1.06,12.45-1.77S1177,625,1177,625l6.08-1.92Z" transform="translate(-708.12 -215.56)"/><path class="cls-24" d="M1228.86,637.23s-0.34,4.15-7.23,3.68-10.55-1.53-16.14-1.94a34.93,34.93,0,0,0-8.29.12l-0.14-3.57s8.88,0.37,12.58.24,11.56-1,11.56-1l6.31-.92Z" transform="translate(-708.12 -215.56)"/><polygon class="cls-24" points="535.09 407.7 535.86 414.51 535.01 414.2 534.51 407.9 535.09 407.7"/><polygon class="cls-24" points="453.06 408.13 454.41 414.86 453.54 414.62 452.5 408.39 453.06 408.13"/><path class="cls-26" d="M886.8,524.71s1.23-9.38,15-15.85,27,15.85,35.86,30.26,8.19,34.19,8.19,34.19-4.09,4.23-7.9,4.29S886.8,524.71,886.8,524.71Z" transform="translate(-708.12 -215.56)"/><path class="cls-27" d="M943.14,579.94a87.24,87.24,0,0,0-4.27-27.32c-4.75-14.48-22.07-34.65-27.3-36.3s-20.46-.36-24.91,3.19-9.19,10.2-9.19,10.2,3.46,20.74,7.77,29.34,17.74,24.67,22,28.06,13.59,3.94,21.89,2.76,12.74-5.07,12.74-5.07Z" transform="translate(-708.12 -215.56)"/><path class="cls-28" d="M888.16,523.31s-2,4.19,1.23,11.77,22.9,42.61,22.9,42.61-22.2-42.62-22.26-46.43a75,75,0,0,1,1.2-10.77Z" transform="translate(-708.12 -215.56)"/><rect class="cls-29" x="775.28" y="287.68" width="45.86" height="0.83" transform="translate(-601.16 564.79) rotate(-55.3)"/><path class="cls-30" d="M781.29,349.18c-12.35-.93-23-5.09-29.2-10.69,4.36,7.53,15.65,13.45,29.28,14.48,14.4,1.09,27-3.62,32-11.11C806.56,347.18,794.62,350.18,781.29,349.18Z" transform="translate(-708.12 -215.56)"/></svg>